<?xml version="1.0" encoding="utf-8"?>
<!-- Generator: Adobe Illustrator 25.2.1, SVG Export Plug-In . SVG Version: 6.00 Build 0)  -->
<svg version="1.1" id="图层_1" xmlns="http://www.w3.org/2000/svg" xmlns:xlink="http://www.w3.org/1999/xlink" x="0px" y="0px"
	 viewBox="0 0 52.82 50" style="enable-background:new 0 0 52.82 50;" xml:space="preserve">
<style type="text/css">
	.st0{fill:url(#SVGID_1_);}
	.st1{fill:url(#SVGID_2_);}
	.st2{fill:url(#SVGID_3_);}
	.st3{fill:url(#SVGID_4_);}
	.st4{fill:url(#SVGID_5_);}
	.st5{fill:url(#SVGID_6_);}
	.st6{fill:url(#SVGID_7_);}
	.st7{fill:url(#SVGID_8_);}
	.st8{fill:url(#SVGID_9_);}
	.st9{fill:url(#SVGID_10_);}
	.st10{fill:url(#SVGID_11_);}
	.st11{fill:url(#SVGID_12_);}
	.st12{fill:url(#SVGID_13_);}
</style>
<g>
	<linearGradient id="SVGID_1_" gradientUnits="userSpaceOnUse" x1="15.4184" y1="32.3538" x2="15.4184" y2="3.0477">
		<stop  offset="0" style="stop-color:#003BFF"/>
		<stop  offset="0.9981" style="stop-color:#02FFFF"/>
	</linearGradient>
	<path class="st0" d="M20.38,22c2.45,0,4.43,1.98,4.43,4.43c0,4.48,0,11.33,0.01,15.47c0,0.22-0.25,0.44-0.25,0.44
		s-7.48,3.86-12.14,6.16c-2.94,1.45-6.39-0.69-6.39-3.97V42.7c0,0,0-6.21,0-10.86c0-0.08,0-0.16,0-0.31
		c0.46,0.06,0.89,0.08,1.3,0.18c2.39,0.58,3.97,1.42,4.19,3.86c0.04,0.49,0.05,2.21,0.05,5.01c0,1.12,1.19,1.83,2.17,1.3
		c1.36-0.73,3.53-1.83,4.71-2.42c0.5-0.25,0.82-0.77,0.81-1.34c-0.03-2.09-0.1-7.13-0.1-8.98c0-0.81-0.66-1.47-1.48-1.47l-10.18,0
		c-0.81,0-1.47-0.66-1.47-1.47c0-3.82,0-19.76,0-19.76l0-1.7c0-3.35,3.57-5.49,6.53-3.9c4.72,2.54,10.45,5.62,11.52,6.25
		c0.45,0.26,0.73,0.75,0.73,1.28c0,2.28,0,7.53,0,10.98c0,0.06,0,0.11,0,0.19c-0.66,0.02-1.29-0.09-1.89-0.31
		c-2.3-0.84-3.75-2.92-3.75-5.36c0-0.86,0.01-1.31,0.01-2.27c0-0.53-0.28-1.02-0.74-1.29c-1.12-0.65-3.26-1.89-4.63-2.7
		C12.83,7,11.58,7.72,11.59,8.87c0.02,2.81,0.05,8.87,0.07,11.66c0,0.81,0.66,1.47,1.48,1.47L20.38,22z"/>
	<linearGradient id="SVGID_2_" gradientUnits="userSpaceOnUse" x1="39.1654" y1="40.7525" x2="39.1654" y2="7.6699">
		<stop  offset="0" style="stop-color:#FEA056"/>
		<stop  offset="0.9981" style="stop-color:#F44126"/>
	</linearGradient>
	<path class="st1" d="M50.56,24.21c-0.35-1.73-1.34-3-2.85-3.88c-2.67-1.56-5.35-3.09-8.02-4.64c-3.85-2.22-11.86-6.85-12.04-6.95
		c0,11.04,0,22.05,0,33.08c0.1-0.05,0.17-0.09,0.24-0.13c1.71-0.99,3.42-1.98,5.14-2.96c0.21-0.12,0.27-0.25,0.27-0.48
		c-0.01-6.48-0.01-12.96-0.01-19.44c0-0.08,0-0.17,0-0.3c5.56,3.21,11.08,6.4,16.62,9.6C50.61,26.86,50.84,25.57,50.56,24.21z"/>
	<linearGradient id="SVGID_3_" gradientUnits="userSpaceOnUse" x1="39.5736" y1="39.4626" x2="39.5736" y2="12.1994">
		<stop  offset="0" style="stop-color:#FEB47A"/>
		<stop  offset="0.9981" style="stop-color:#F63814"/>
	</linearGradient>
	<path class="st2" d="M33.33,18.58c5.56,3.21,9.64,5.52,15.18,8.72c0.6-1.08,0.39-1.28,0.27-2.43c-0.09-0.06-2.03-2.28-2.12-2.34
		c-2.67-1.56-2.97-1.68-5.64-3.22c-3.85-2.22-10.5-6.12-10.68-6.22c0,9.11-0.11,18.17-0.11,27.26c0.91-0.52,1.93-1.11,2.84-1.63
		c0.21-0.12,0.27-0.25,0.27-0.48c-0.01-6.48-0.01-12.87-0.01-19.36C33.33,18.79,33.33,18.71,33.33,18.58z"/>
	<linearGradient id="SVGID_4_" gradientUnits="userSpaceOnUse" x1="42.0358" y1="36.7473" x2="42.0358" y2="26.9921">
		<stop  offset="0" style="stop-color:#FEA056"/>
		<stop  offset="0.9981" style="stop-color:#F44126"/>
	</linearGradient>
	<path class="st3" d="M42.62,27.19c-0.46-0.26-1.02-0.26-1.47,0l-4.04,2.4c-0.46,0.26-0.74,0.75-0.74,1.28c0,1.4,0,4.19,0,5.67
		c0,0.06,0.01,0.12,0.02,0.21c4.86-2.81,6.44-3.81,11.31-6.62c-0.07-0.05-0.1-0.07-0.14-0.09c-1.23-0.71-3.46-1.99-4.74-2.72
		C42.76,27.27,42.68,27.23,42.62,27.19z"/>
	<linearGradient id="SVGID_5_" gradientUnits="userSpaceOnUse" x1="22.8559" y1="15.7733" x2="22.8559" y2="9.1619">
		<stop  offset="6.357828e-08" style="stop-color:#02FFFF"/>
		<stop  offset="0.9981" style="stop-color:#02FFFF;stop-opacity:0"/>
	</linearGradient>
	<path class="st4" d="M24.81,19.52c0,0-2.83-1.64-3.2-3.93c-0.21-1.3-0.16-1.53-0.14-2.78c0.01-0.84,0.28-2.45-0.57-3.78l3.91-0.49
		L24.81,19.52z"/>
	<linearGradient id="SVGID_6_" gradientUnits="userSpaceOnUse" x1="22.8559" y1="15.4619" x2="22.8559" y2="9.1351">
		<stop  offset="2.494225e-07" style="stop-color:#ADF8FF"/>
		<stop  offset="0.9981" style="stop-color:#A6F6FF;stop-opacity:0"/>
	</linearGradient>
	<path class="st5" d="M22.01,15.9c-0.21-1.3-0.16-1.53-0.14-2.78c0.01-0.84,0.28-2.45-0.57-3.78l3.51-0.44l0-0.36L20.9,9.03
		c0.85,1.33,0.58,2.93,0.57,3.78c-0.02,1.25-0.07,1.48,0.14,2.78c0.25,1.56,1.64,2.82,2.5,3.46C23.28,18.35,22.23,17.24,22.01,15.9z
		"/>
	
		<linearGradient id="SVGID_7_" gradientUnits="userSpaceOnUse" x1="2175.1602" y1="-1216.3212" x2="2175.1602" y2="-1224.9128" gradientTransform="matrix(-0.5017 0.8651 0.8651 0.5017 2189.8877 -1247.2202)">
		<stop  offset="0" style="stop-color:#FC9C54"/>
		<stop  offset="0.9981" style="stop-color:#F86839;stop-opacity:0"/>
	</linearGradient>
	<path class="st6" d="M49.92,28.11c0,0,0.09-2.99-1.71-4.46c-1.02-0.83-1.47-1.11-2.56-1.72c-0.73-0.41-4.36-2.56-6.13-3.58
		l-1.95,2.61L49.92,28.11z"/>
	<linearGradient id="SVGID_8_" gradientUnits="userSpaceOnUse" x1="44.5773" y1="24.7782" x2="44.5773" y2="18.9006">
		<stop  offset="0" style="stop-color:#FCCFAE"/>
		<stop  offset="0.9981" style="stop-color:#FC8C4D;stop-opacity:0"/>
	</linearGradient>
	<path class="st7" d="M39.24,18.71c1.77,1.02,5.67,3.37,6.4,3.79c1.09,0.61,1.54,0.88,2.56,1.72c1.3,1.07,1.62,2.93,1.69,3.88
		l0.02,0.01c0,0,0.09-2.99-1.71-4.46c-1.02-0.83-1.47-1.11-2.56-1.72c-0.73-0.41-4.36-2.56-6.13-3.58"/>
	
		<linearGradient id="SVGID_9_" gradientUnits="userSpaceOnUse" x1="166.647" y1="-769.2823" x2="165.1779" y2="-778.5577" gradientTransform="matrix(-1 0 0 -1 173.2509 -736.7521)">
		<stop  offset="0" style="stop-color:#0007E3"/>
		<stop  offset="0.2551" style="stop-color:#000DE6;stop-opacity:0.7449"/>
		<stop  offset="0.5883" style="stop-color:#001DEF;stop-opacity:0.4117"/>
		<stop  offset="0.9634" style="stop-color:#0038FD;stop-opacity:0.0366"/>
		<stop  offset="1" style="stop-color:#003BFF;stop-opacity:0"/>
	</linearGradient>
	<path class="st8" d="M6.03,31.52c0,0,2.83,1.64,3.2,3.93c0.21,1.3,0.16,1.53,0.14,2.78c-0.01,0.84-0.28,2.45,0.57,3.78L6.03,42.5
		L6.03,31.52z"/>
	
		<linearGradient id="SVGID_10_" gradientUnits="userSpaceOnUse" x1="166.6302" y1="-770.0363" x2="165.1744" y2="-778.2924" gradientTransform="matrix(-1 0 0 -1 173.2509 -736.7521)">
		<stop  offset="6.211110e-07" style="stop-color:#017FFF"/>
		<stop  offset="0.9981" style="stop-color:#02FFFF;stop-opacity:0"/>
	</linearGradient>
	<path class="st9" d="M8.82,35.14c0.21,1.3,0.16,1.53,0.14,2.78c-0.01,0.84-0.28,2.45,0.57,3.78l-3.51,0.44l0,0.36l3.91-0.49
		c-0.85-1.33-0.58-2.93-0.57-3.78c0.02-1.25,0.07-1.48-0.14-2.78c-0.25-1.56-1.64-2.82-2.5-3.46C7.56,32.69,8.61,33.8,8.82,35.14z"
		/>
	<linearGradient id="SVGID_11_" gradientUnits="userSpaceOnUse" x1="15.9243" y1="8.704" x2="15.9243" y2="5.6572">
		<stop  offset="0" style="stop-color:#0096FF;stop-opacity:0"/>
		<stop  offset="0.9981" style="stop-color:#00E0FF"/>
	</linearGradient>
	<path class="st10" d="M11.6,8.54c0,0-0.07-2.95,2.24-3.16s6.4,3.16,6.4,3.16l-1.58,1.89l-4.84-2.84
		C13.82,7.59,12.45,6.72,11.6,8.54z"/>
	<linearGradient id="SVGID_12_" gradientUnits="userSpaceOnUse" x1="10.3788" y1="42.5682" x2="19.8086" y2="40.5639">
		<stop  offset="1.858442e-07" style="stop-color:#003BFF;stop-opacity:0"/>
		<stop  offset="0.1669" style="stop-color:#002BF7;stop-opacity:0.1669"/>
		<stop  offset="0.4729" style="stop-color:#0013EC;stop-opacity:0.4729"/>
		<stop  offset="0.7582" style="stop-color:#0005E5;stop-opacity:0.7582"/>
		<stop  offset="1" style="stop-color:#0000E3"/>
	</linearGradient>
	<path class="st11" d="M19.26,38.11c0,0,0.69,2.84-0.68,4.01s-4.59,2.33-5.45,2.41c-1.22,0.11-2.61-0.9-3.3-2.51
		c0,0,1.56,0.32,1.95,0.32c0.39,0,1.16-0.05,1.96-0.47c0.97-0.51,4.86-2.5,4.86-2.5S19.28,38.94,19.26,38.11z"/>
	<linearGradient id="SVGID_13_" gradientUnits="userSpaceOnUse" x1="42.049" y1="36.7473" x2="42.049" y2="27.2972">
		<stop  offset="0" style="stop-color:#FEB077"/>
		<stop  offset="0.9981" style="stop-color:#F41F00"/>
	</linearGradient>
	<path class="st12" d="M42.81,27.3c0,0,1.39,2.27-2.39,4.1s-4.03,5.35-4.03,5.35l11.31-6.62L42.81,27.3z"/>
</g>
</svg>
