<?xml version="1.0" encoding="utf-8"?>
<!-- Generator: Adobe Illustrator 25.2.1, SVG Export Plug-In . SVG Version: 6.00 Build 0)  -->
<svg version="1.1" id="图层_1" xmlns="http://www.w3.org/2000/svg" xmlns:xlink="http://www.w3.org/1999/xlink" x="0px" y="0px"
	 viewBox="0 0 177.67 50" style="enable-background:new 0 0 177.67 50;" xml:space="preserve">
<style type="text/css">
	.st0{fill:#494949;}
</style>
<g>
	<path class="st0" d="M1.08,28.26l4.23-0.41c0.25,1.42,0.77,2.46,1.55,3.13c0.78,0.67,1.83,1,3.15,1c1.4,0,2.46-0.3,3.17-0.89
		s1.06-1.29,1.06-2.08c0-0.51-0.15-0.94-0.45-1.3c-0.3-0.36-0.82-0.67-1.56-0.93c-0.51-0.18-1.67-0.49-3.48-0.94
		c-2.33-0.58-3.97-1.29-4.91-2.13c-1.32-1.19-1.98-2.63-1.98-4.33c0-1.1,0.31-2.12,0.93-3.08s1.52-1.68,2.69-2.18
		s2.58-0.75,4.24-0.75c2.7,0,4.74,0.59,6.1,1.78c1.37,1.19,2.08,2.77,2.15,4.74l-4.35,0.19c-0.19-1.11-0.59-1.9-1.2-2.39
		c-0.61-0.48-1.53-0.73-2.75-0.73c-1.26,0-2.25,0.26-2.97,0.78c-0.46,0.33-0.69,0.78-0.69,1.34c0,0.51,0.22,0.95,0.65,1.31
		c0.55,0.46,1.88,0.94,4,1.44s3.68,1.02,4.69,1.55c1.01,0.53,1.81,1.26,2.38,2.19c0.57,0.93,0.86,2.07,0.86,3.43
		c0,1.23-0.34,2.39-1.03,3.47c-0.69,1.08-1.66,1.88-2.91,2.4s-2.82,0.79-4.69,0.79c-2.72,0-4.81-0.63-6.27-1.89
		C2.24,32.5,1.36,30.67,1.08,28.26z"/>
	<path class="st0" d="M22.22,35.27V13.73h4.13v21.54H22.22z"/>
	<path class="st0" d="M33.67,24.43l-3.75-0.68c0.42-1.51,1.15-2.62,2.17-3.35c1.03-0.72,2.56-1.09,4.58-1.09
		c1.84,0,3.21,0.22,4.11,0.65c0.9,0.44,1.54,0.99,1.9,1.66c0.37,0.67,0.55,1.9,0.55,3.7l-0.04,4.82c0,1.37,0.07,2.38,0.2,3.03
		c0.13,0.65,0.38,1.35,0.74,2.09h-4.08c-0.11-0.27-0.24-0.68-0.4-1.22c-0.07-0.24-0.12-0.41-0.15-0.49
		c-0.71,0.69-1.46,1.2-2.26,1.54s-1.66,0.51-2.57,0.51c-1.61,0-2.87-0.44-3.8-1.31c-0.93-0.87-1.39-1.97-1.39-3.31
		c0-0.88,0.21-1.67,0.63-2.36s1.01-1.22,1.77-1.59s1.85-0.69,3.28-0.96c1.93-0.36,3.27-0.7,4.01-1.01v-0.41
		c0-0.79-0.2-1.36-0.59-1.7s-1.13-0.51-2.22-0.51c-0.73,0-1.31,0.14-1.72,0.43C34.25,23.19,33.92,23.7,33.67,24.43z M39.19,27.78
		c-0.53,0.18-1.37,0.39-2.51,0.63c-1.15,0.24-1.9,0.48-2.25,0.72c-0.54,0.38-0.81,0.87-0.81,1.45s0.22,1.08,0.65,1.5
		c0.43,0.42,0.98,0.63,1.65,0.63c0.74,0,1.45-0.24,2.13-0.73c0.5-0.37,0.83-0.83,0.98-1.37c0.11-0.35,0.16-1.02,0.16-2.01
		C39.19,28.6,39.19,27.78,39.19,27.78z"/>
	<path class="st0" d="M54.47,19.67v3.29h-2.82v6.29c0,1.27,0.03,2.01,0.08,2.23s0.18,0.38,0.37,0.52c0.19,0.14,0.42,0.21,0.7,0.21
		c0.38,0,0.93-0.13,1.66-0.4l0.35,3.2c-0.96,0.41-2.05,0.62-3.26,0.62c-0.74,0-1.42-0.12-2.01-0.37c-0.6-0.25-1.04-0.57-1.31-0.97
		c-0.28-0.4-0.47-0.93-0.58-1.61c-0.09-0.48-0.13-1.45-0.13-2.91v-6.8h-1.9v-3.29h1.9v-3.1l4.14-2.41v5.51L54.47,19.67L54.47,19.67z
		"/>
	<path class="st0" d="M84.03,35.27H79.3l-1.88-4.89h-8.61l-1.78,4.89h-4.61l8.39-21.54h4.6L84.03,35.27z M76.02,26.75l-2.97-7.99
		l-2.91,7.99H76.02z"/>
	<path class="st0" d="M100.5,35.27h-4.13v-7.96c0-1.68-0.09-2.77-0.26-3.27c-0.18-0.49-0.46-0.88-0.86-1.15s-0.87-0.41-1.43-0.41
		c-0.71,0-1.36,0.2-1.92,0.59c-0.57,0.39-0.96,0.91-1.17,1.56s-0.32,1.84-0.32,3.58v7.07h-4.13v-15.6h3.83v2.29
		c1.36-1.76,3.08-2.64,5.14-2.64c0.91,0,1.74,0.16,2.5,0.49c0.75,0.33,1.32,0.75,1.71,1.26s0.66,1.09,0.81,1.73
		c0.15,0.65,0.23,1.57,0.23,2.78C100.5,25.59,100.5,35.27,100.5,35.27z"/>
	<path class="st0" d="M104.3,36.3l4.72,0.57c0.08,0.55,0.26,0.93,0.54,1.13c0.39,0.29,1.01,0.44,1.85,0.44
		c1.08,0,1.89-0.16,2.42-0.49c0.36-0.22,0.64-0.56,0.82-1.04c0.13-0.34,0.19-0.97,0.19-1.9v-2.28c-1.23,1.68-2.79,2.53-4.67,2.53
		c-2.1,0-3.76-0.89-4.98-2.66c-0.96-1.4-1.44-3.14-1.44-5.23c0-2.62,0.63-4.61,1.89-5.99s2.82-2.07,4.69-2.07
		c1.93,0,3.52,0.85,4.77,2.54v-2.19h3.86v14c0,1.84-0.15,3.22-0.46,4.13c-0.3,0.91-0.73,1.63-1.28,2.15
		c-0.55,0.52-1.28,0.93-2.2,1.22s-2.07,0.44-3.47,0.44c-2.64,0-4.52-0.45-5.63-1.36s-1.66-2.05-1.66-3.44
		C104.29,36.66,104.29,36.49,104.3,36.3z M107.99,27.14c0,1.66,0.32,2.87,0.96,3.64s1.43,1.15,2.37,1.15c1.01,0,1.86-0.39,2.56-1.18
		s1.04-1.96,1.04-3.5c0-1.62-0.33-2.82-1-3.6s-1.51-1.18-2.53-1.18c-0.99,0-1.8,0.38-2.45,1.15
		C108.31,24.39,107.99,25.57,107.99,27.14z"/>
	<path class="st0" d="M133.33,35.27v-2.34c-0.57,0.83-1.31,1.49-2.24,1.97c-0.93,0.48-1.9,0.72-2.93,0.72
		c-1.05,0-1.99-0.23-2.82-0.69s-1.44-1.11-1.81-1.94c-0.37-0.83-0.56-1.98-0.56-3.45v-9.87h4.13v7.17c0,2.19,0.08,3.54,0.23,4.03
		c0.15,0.49,0.43,0.89,0.83,1.18s0.91,0.43,1.53,0.43c0.71,0,1.34-0.19,1.9-0.58c0.56-0.39,0.94-0.87,1.15-1.44
		c0.21-0.57,0.31-1.98,0.31-4.21v-6.58h4.13v15.6C137.18,35.27,133.33,35.27,133.33,35.27z"/>
	<path class="st0" d="M141.44,35.27V13.73h4.13v21.54H141.44z"/>
	<path class="st0" d="M152.89,24.43l-3.75-0.68c0.42-1.51,1.15-2.62,2.17-3.35c1.03-0.72,2.56-1.09,4.58-1.09
		c1.84,0,3.21,0.22,4.11,0.65c0.9,0.44,1.53,0.99,1.9,1.66s0.55,1.9,0.55,3.7l-0.04,4.82c0,1.37,0.07,2.38,0.2,3.03
		c0.13,0.65,0.38,1.35,0.74,2.09h-4.08c-0.11-0.27-0.24-0.68-0.4-1.22c-0.07-0.24-0.12-0.41-0.15-0.49c-0.7,0.69-1.46,1.2-2.26,1.54
		c-0.8,0.34-1.66,0.51-2.57,0.51c-1.61,0-2.87-0.44-3.8-1.31c-0.93-0.87-1.39-1.97-1.39-3.31c0-0.88,0.21-1.67,0.63-2.36
		s1.01-1.22,1.77-1.59c0.76-0.37,1.85-0.69,3.28-0.96c1.93-0.36,3.27-0.7,4.01-1.01v-0.41c0-0.79-0.2-1.36-0.59-1.7
		s-1.13-0.51-2.22-0.51c-0.73,0-1.31,0.14-1.72,0.43C153.47,23.19,153.14,23.7,152.89,24.43z M158.41,27.78
		c-0.53,0.18-1.37,0.39-2.51,0.63c-1.15,0.24-1.89,0.48-2.25,0.72c-0.54,0.38-0.81,0.87-0.81,1.45s0.22,1.08,0.65,1.5
		c0.43,0.42,0.98,0.63,1.65,0.63c0.74,0,1.45-0.24,2.13-0.73c0.5-0.37,0.83-0.83,0.98-1.37c0.11-0.35,0.16-1.02,0.16-2.01V27.78z"/>
	<path class="st0" d="M170.49,35.27h-4.13v-15.6h3.83v2.22c0.66-1.05,1.25-1.74,1.77-2.07s1.12-0.5,1.78-0.5
		c0.94,0,1.85,0.26,2.72,0.78l-1.28,3.6c-0.7-0.45-1.34-0.68-1.94-0.68c-0.58,0-1.07,0.16-1.47,0.48s-0.72,0.89-0.95,1.73
		c-0.23,0.83-0.35,2.58-0.35,5.23v4.81H170.49z"/>
</g>
</svg>
