<?xml version="1.0" encoding="utf-8"?>
<!-- Generator: Adobe Illustrator 25.2.1, SVG Export Plug-In . SVG Version: 6.00 Build 0)  -->
<svg version="1.1" id="图层_1" xmlns="http://www.w3.org/2000/svg" xmlns:xlink="http://www.w3.org/1999/xlink" x="0px" y="0px"
	 viewBox="0 0 177.67 50" style="enable-background:new 0 0 177.67 50;" xml:space="preserve">
<style type="text/css">
	.st0{fill:#494949;}
</style>
<g>
	<path class="st0" d="M0.99,28.89l3.86-0.38c0.23,1.3,0.7,2.25,1.42,2.86c0.71,0.61,1.67,0.91,2.88,0.91c1.28,0,2.24-0.27,2.89-0.81
		c0.65-0.54,0.97-1.17,0.97-1.9c0-0.46-0.14-0.86-0.41-1.19s-0.75-0.61-1.43-0.85c-0.46-0.16-1.52-0.45-3.18-0.86
		c-2.13-0.53-3.62-1.18-4.48-1.95c-1.21-1.08-1.81-2.4-1.81-3.96c0-1,0.28-1.94,0.85-2.81c0.57-0.87,1.39-1.54,2.46-1.99
		c1.07-0.46,2.36-0.68,3.87-0.68c2.47,0,4.33,0.54,5.58,1.62c1.25,1.08,1.9,2.53,1.97,4.33l-3.97,0.17
		c-0.17-1.01-0.53-1.74-1.09-2.18c-0.56-0.44-1.4-0.66-2.52-0.66c-1.15,0-2.06,0.24-2.71,0.71c-0.42,0.3-0.63,0.71-0.63,1.22
		c0,0.46,0.2,0.86,0.59,1.19c0.5,0.42,1.72,0.86,3.65,1.31s3.36,0.93,4.29,1.42s1.65,1.15,2.17,2c0.52,0.85,0.79,1.89,0.79,3.13
		c0,1.13-0.31,2.18-0.94,3.17c-0.63,0.98-1.51,1.71-2.66,2.19c-1.15,0.48-2.57,0.72-4.28,0.72c-2.49,0-4.4-0.57-5.73-1.72
		C2.05,32.76,1.25,31.09,0.99,28.89z"/>
	<path class="st0" d="M20.3,35.29V15.62h3.77v19.67H20.3z"/>
	<path class="st0" d="M30.75,25.39l-3.42-0.62c0.38-1.38,1.05-2.4,1.99-3.06c0.94-0.66,2.33-0.99,4.19-0.99
		c1.68,0,2.93,0.2,3.76,0.6c0.82,0.4,1.4,0.9,1.74,1.52c0.34,0.61,0.5,1.74,0.5,3.37l-0.04,4.4c0,1.25,0.06,2.18,0.18,2.77
		c0.12,0.59,0.35,1.23,0.68,1.91h-3.73c-0.1-0.25-0.22-0.62-0.36-1.11c-0.06-0.22-0.11-0.37-0.13-0.44
		c-0.64,0.63-1.33,1.1-2.07,1.41c-0.73,0.31-1.52,0.47-2.35,0.47c-1.47,0-2.62-0.4-3.47-1.19s-1.27-1.8-1.27-3.02
		c0-0.8,0.19-1.52,0.58-2.15c0.38-0.63,0.92-1.11,1.62-1.45c0.69-0.33,1.69-0.63,3-0.88c1.76-0.33,2.98-0.64,3.66-0.93v-0.38
		c0-0.73-0.18-1.24-0.54-1.55s-1.03-0.46-2.03-0.46c-0.67,0-1.19,0.13-1.57,0.4C31.29,24.26,30.99,24.72,30.75,25.39z M35.8,28.45
		c-0.48,0.16-1.25,0.35-2.29,0.58c-1.05,0.22-1.73,0.44-2.05,0.66c-0.49,0.35-0.74,0.79-0.74,1.33c0,0.53,0.2,0.98,0.59,1.37
		c0.39,0.38,0.89,0.58,1.5,0.58c0.68,0,1.33-0.22,1.95-0.67c0.46-0.34,0.76-0.76,0.9-1.25c0.1-0.32,0.15-0.94,0.15-1.84V28.45z"/>
	<path class="st0" d="M49.75,21.04v3.01h-2.58v5.74c0,1.16,0.02,1.84,0.07,2.03s0.16,0.35,0.34,0.48s0.39,0.19,0.64,0.19
		c0.35,0,0.85-0.12,1.52-0.36l0.32,2.93c-0.88,0.38-1.87,0.56-2.98,0.56c-0.68,0-1.29-0.11-1.84-0.34c-0.55-0.23-0.95-0.52-1.2-0.88
		c-0.25-0.36-0.43-0.85-0.53-1.47c-0.08-0.44-0.12-1.32-0.12-2.66v-6.21h-1.73v-3.01h1.73v-2.83l3.78-2.2v5.03H49.75z"/>
	<path class="st0" d="M60.62,30.75l3.76,0.63c-0.48,1.38-1.25,2.43-2.29,3.15c-1.04,0.72-2.35,1.08-3.91,1.08
		c-2.48,0-4.31-0.81-5.5-2.43c-0.94-1.3-1.41-2.93-1.41-4.91c0-2.36,0.62-4.21,1.85-5.55c1.23-1.34,2.8-2.01,4.68-2.01
		c2.12,0,3.79,0.7,5.02,2.1s1.81,3.55,1.76,6.43h-9.45c0.03,1.12,0.33,1.99,0.91,2.61c0.58,0.62,1.31,0.93,2.17,0.93
		c0.59,0,1.09-0.16,1.49-0.48C60.11,31.99,60.42,31.47,60.62,30.75z M60.84,26.94c-0.03-1.09-0.31-1.92-0.85-2.49
		c-0.54-0.57-1.19-0.85-1.96-0.85c-0.82,0-1.5,0.3-2.04,0.9c-0.54,0.6-0.8,1.41-0.79,2.44H60.84z"/>
	<path class="st0" d="M92.03,35.29h-4.32l-1.72-4.47h-7.86l-1.62,4.47h-4.21l7.66-19.67h4.2L92.03,35.29z M84.72,27.51l-2.71-7.3
		l-2.66,7.3H84.72z"/>
	<path class="st0" d="M107.07,35.29h-3.77v-7.27c0-1.54-0.08-2.53-0.24-2.99c-0.16-0.45-0.42-0.8-0.78-1.05
		c-0.36-0.25-0.8-0.38-1.31-0.38c-0.65,0-1.24,0.18-1.76,0.54c-0.52,0.36-0.87,0.83-1.07,1.42c-0.19,0.59-0.29,1.68-0.29,3.27v6.45
		h-3.77V21.04h3.5v2.09c1.24-1.61,2.81-2.42,4.7-2.42c0.83,0,1.59,0.15,2.28,0.45c0.69,0.3,1.21,0.68,1.56,1.15
		c0.35,0.46,0.6,0.99,0.74,1.58c0.14,0.59,0.21,1.44,0.21,2.54V35.29z"/>
	<path class="st0" d="M110.55,36.23l4.31,0.52c0.07,0.5,0.24,0.84,0.5,1.03c0.36,0.27,0.92,0.4,1.69,0.4c0.98,0,1.72-0.15,2.21-0.44
		c0.33-0.2,0.58-0.51,0.75-0.95c0.12-0.31,0.17-0.89,0.17-1.73v-2.08c-1.13,1.54-2.55,2.31-4.27,2.31c-1.91,0-3.43-0.81-4.55-2.43
		c-0.88-1.28-1.31-2.87-1.31-4.78c0-2.39,0.57-4.21,1.72-5.48c1.15-1.26,2.58-1.89,4.29-1.89c1.76,0,3.22,0.77,4.36,2.32v-2h3.53
		v12.79c0,1.68-0.14,2.94-0.42,3.77s-0.67,1.49-1.17,1.96c-0.5,0.47-1.17,0.85-2.01,1.11c-0.84,0.27-1.89,0.4-3.17,0.4
		c-2.42,0-4.13-0.41-5.14-1.24c-1.01-0.83-1.52-1.88-1.52-3.15C110.54,36.56,110.54,36.41,110.55,36.23z M113.92,27.87
		c0,1.51,0.29,2.62,0.88,3.32s1.31,1.05,2.17,1.05c0.92,0,1.7-0.36,2.33-1.08c0.63-0.72,0.95-1.79,0.95-3.2
		c0-1.48-0.3-2.57-0.91-3.29c-0.61-0.72-1.38-1.07-2.31-1.07c-0.9,0-1.65,0.35-2.23,1.05C114.21,25.36,113.92,26.43,113.92,27.87z"
		/>
	<path class="st0" d="M137.06,35.29v-2.13c-0.52,0.76-1.2,1.36-2.05,1.8c-0.85,0.44-1.74,0.66-2.68,0.66
		c-0.96,0-1.82-0.21-2.58-0.63c-0.76-0.42-1.31-1.01-1.65-1.77c-0.34-0.76-0.51-1.81-0.51-3.15v-9.02h3.77v6.55
		c0,2,0.07,3.23,0.21,3.68c0.14,0.45,0.39,0.81,0.76,1.07c0.37,0.26,0.83,0.4,1.4,0.4c0.64,0,1.22-0.18,1.73-0.53
		c0.51-0.35,0.86-0.79,1.05-1.32s0.28-1.8,0.28-3.84v-6.01h3.77v14.25H137.06z"/>
	<path class="st0" d="M144.47,35.29V15.62h3.77v19.67H144.47z"/>
	<path class="st0" d="M154.92,25.39l-3.42-0.62c0.38-1.38,1.05-2.4,1.99-3.06c0.94-0.66,2.33-0.99,4.19-0.99
		c1.68,0,2.93,0.2,3.76,0.6c0.82,0.4,1.4,0.9,1.74,1.52c0.34,0.61,0.5,1.74,0.5,3.37l-0.04,4.4c0,1.25,0.06,2.18,0.18,2.77
		c0.12,0.59,0.35,1.23,0.68,1.91h-3.73c-0.1-0.25-0.22-0.62-0.36-1.11c-0.06-0.22-0.11-0.37-0.13-0.44
		c-0.64,0.63-1.33,1.1-2.07,1.41c-0.73,0.31-1.52,0.47-2.35,0.47c-1.47,0-2.62-0.4-3.47-1.19s-1.27-1.8-1.27-3.02
		c0-0.8,0.19-1.52,0.58-2.15c0.38-0.63,0.92-1.11,1.62-1.45c0.69-0.33,1.69-0.63,3-0.88c1.76-0.33,2.98-0.64,3.66-0.93v-0.38
		c0-0.73-0.18-1.24-0.54-1.55s-1.03-0.46-2.03-0.46c-0.67,0-1.19,0.13-1.57,0.4C155.46,24.26,155.15,24.72,154.92,25.39z
		 M159.97,28.45c-0.48,0.16-1.25,0.35-2.29,0.58c-1.05,0.22-1.73,0.44-2.05,0.66c-0.49,0.35-0.74,0.79-0.74,1.33
		c0,0.53,0.2,0.98,0.59,1.37c0.39,0.38,0.89,0.58,1.5,0.58c0.68,0,1.33-0.22,1.95-0.67c0.46-0.34,0.76-0.76,0.9-1.25
		c0.1-0.32,0.15-0.94,0.15-1.84V28.45z"/>
	<path class="st0" d="M171,35.29h-3.77V21.04h3.5v2.03c0.6-0.96,1.14-1.59,1.62-1.89c0.48-0.3,1.02-0.46,1.63-0.46
		c0.86,0,1.69,0.24,2.48,0.71l-1.17,3.29c-0.63-0.41-1.23-0.62-1.77-0.62c-0.53,0-0.98,0.15-1.34,0.44
		c-0.37,0.29-0.66,0.82-0.87,1.58c-0.21,0.76-0.32,2.35-0.32,4.78V35.29z"/>
</g>
</svg>
